<svg width="628" height="628" fill="none" xmlns="http://www.w3.org/2000/svg"><g opacity=".25" stroke-opacity=".5"><path transform="rotate(-15 42.719 157.376)" stroke="url(#paint0_linear_2207_271)" d="M42.719 157.376h443v443h-443z"/><path stroke="url(#paint1_linear_2207_271)" d="M92.5 92.5h443v443h-443z"/><path transform="rotate(-30 11.425 232.925)" stroke="url(#paint2_linear_2207_271)" d="M11.425 232.925h443v443h-443z"/><path transform="rotate(-45 .752 314)" stroke="url(#paint3_linear_2207_271)" d="M.752 314h443v443h-443z"/><path transform="rotate(-60 11.425 395.075)" stroke="url(#paint4_linear_2207_271)" d="M11.425 395.075h443v443h-443z"/><path transform="rotate(-75 42.719 470.624)" stroke="url(#paint5_linear_2207_271)" d="M42.719 470.624h443v443h-443z"/><path transform="rotate(165.146 584.88 471.317)" stroke="url(#paint6_linear_2207_271)" d="M584.88 471.317h443v443h-443z"/><path transform="rotate(-179.854 534.933 536.065)" stroke="url(#paint7_linear_2207_271)" d="M534.933 536.065h443v443h-443z"/><path transform="rotate(150.146 616.366 395.847)" stroke="url(#paint8_linear_2207_271)" d="M616.366 395.847h443v443h-443z"/><path transform="rotate(135.146 627.247 314.8)" stroke="url(#paint9_linear_2207_271)" d="M627.247 314.8h443v443h-443z"/><path transform="rotate(120.146 616.78 233.699)" stroke="url(#paint10_linear_2207_271)" d="M616.78 233.699h443v443h-443z"/><path transform="rotate(105.146 585.68 158.069)" stroke="url(#paint11_linear_2207_271)" d="M585.68 158.069h443v443h-443z"/></g><defs><linearGradient id="paint0_linear_2207_271" x1="264.106" y1="157.022" x2="264.106" y2="591.522" gradientUnits="userSpaceOnUse"><stop stop-color="#fff"/><stop offset="1" stop-color="#fff" stop-opacity="0"/></linearGradient><linearGradient id="paint1_linear_2207_271" x1="314" y1="92" x2="314" y2="526.5" gradientUnits="userSpaceOnUse"><stop stop-color="#fff"/><stop offset="1" stop-color="#fff" stop-opacity="0"/></linearGradient><linearGradient id="paint2_linear_2207_271" x1="232.742" y1="232.742" x2="232.742" y2="667.242" gradientUnits="userSpaceOnUse"><stop stop-color="#fff"/><stop offset="1" stop-color="#fff" stop-opacity="0"/></linearGradient><linearGradient id="paint3_linear_2207_271" x1="222.044" y1="314" x2="222.044" y2="748.5" gradientUnits="userSpaceOnUse"><stop stop-color="#fff"/><stop offset="1" stop-color="#fff" stop-opacity="0"/></linearGradient><linearGradient id="paint4_linear_2207_271" x1="232.742" y1="395.258" x2="232.742" y2="829.758" gradientUnits="userSpaceOnUse"><stop stop-color="#fff"/><stop offset="1" stop-color="#fff" stop-opacity="0"/></linearGradient><linearGradient id="paint5_linear_2207_271" x1="264.106" y1="470.978" x2="264.106" y2="905.478" gradientUnits="userSpaceOnUse"><stop stop-color="#fff"/><stop offset="1" stop-color="#fff" stop-opacity="0"/></linearGradient><linearGradient id="paint6_linear_2207_271" x1="807.491" y1="471.672" x2="807.491" y2="906.172" gradientUnits="userSpaceOnUse"><stop stop-color="#fff"/><stop offset="1" stop-color="#fff" stop-opacity="0"/></linearGradient><linearGradient id="paint7_linear_2207_271" x1="757.432" y1="536.567" x2="757.432" y2="971.067" gradientUnits="userSpaceOnUse"><stop stop-color="#fff"/><stop offset="1" stop-color="#fff" stop-opacity="0"/></linearGradient><linearGradient id="paint8_linear_2207_271" x1="839.049" y1="396.032" x2="839.049" y2="830.532" gradientUnits="userSpaceOnUse"><stop stop-color="#fff"/><stop offset="1" stop-color="#fff" stop-opacity="0"/></linearGradient><linearGradient id="paint9_linear_2207_271" x1="849.954" y1="314.802" x2="849.954" y2="749.302" gradientUnits="userSpaceOnUse"><stop stop-color="#fff"/><stop offset="1" stop-color="#fff" stop-opacity="0"/></linearGradient><linearGradient id="paint10_linear_2207_271" x1="839.464" y1="233.517" x2="839.464" y2="668.017" gradientUnits="userSpaceOnUse"><stop stop-color="#fff"/><stop offset="1" stop-color="#fff" stop-opacity="0"/></linearGradient><linearGradient id="paint11_linear_2207_271" x1="808.293" y1="157.717" x2="808.293" y2="592.217" gradientUnits="userSpaceOnUse"><stop stop-color="#fff"/><stop offset="1" stop-color="#fff" stop-opacity="0"/></linearGradient></defs></svg>