<svg width="235" height="26" fill="none" xmlns="http://www.w3.org/2000/svg"><path d="M11.456 2.152V5.44H4.592v3.552h5.136v3.192H4.592V19H.488V2.152h10.968zm6.261 5.688a5.3 5.3 0 011.8-1.728 4.576 4.576 0 012.4-.648v4.344h-1.128c-1.024 0-1.792.224-2.304.672-.512.432-.768 1.2-.768 2.304V19h-4.104V5.608h4.104V7.84zm18.786 4.248c0 .384-.024.784-.072 1.2h-9.288c.064.832.328 1.472.792 1.92.48.432 1.064.648 1.752.648 1.024 0 1.736-.432 2.136-1.296h4.368a5.916 5.916 0 01-1.224 2.376 5.958 5.958 0 01-2.184 1.656c-.88.4-1.864.6-2.952.6-1.312 0-2.48-.28-3.504-.84a5.975 5.975 0 01-2.4-2.4c-.576-1.04-.864-2.256-.864-3.648 0-1.392.28-2.608.84-3.648a5.975 5.975 0 012.4-2.4c1.024-.56 2.2-.84 3.528-.84 1.296 0 2.448.272 3.456.816a5.781 5.781 0 012.352 2.328c.576 1.008.864 2.184.864 3.528zm-4.2-1.08c0-.704-.24-1.264-.72-1.68-.48-.416-1.08-.624-1.8-.624-.688 0-1.272.2-1.752.6-.464.4-.752.968-.864 1.704h5.136zm18.989 1.08c0 .384-.024.784-.072 1.2h-9.288c.064.832.328 1.472.792 1.92.48.432 1.064.648 1.752.648 1.024 0 1.736-.432 2.136-1.296h4.368a5.916 5.916 0 01-1.224 2.376 5.958 5.958 0 01-2.184 1.656c-.88.4-1.864.6-2.952.6-1.312 0-2.48-.28-3.504-.84a5.975 5.975 0 01-2.4-2.4c-.576-1.04-.864-2.256-.864-3.648 0-1.392.28-2.608.84-3.648a5.975 5.975 0 012.4-2.4c1.024-.56 2.2-.84 3.528-.84 1.296 0 2.448.272 3.456.816a5.781 5.781 0 012.352 2.328c.576 1.008.864 2.184.864 3.528zm-4.2-1.08c0-.704-.24-1.264-.72-1.68-.48-.416-1.08-.624-1.8-.624-.688 0-1.272.2-1.752.6-.464.4-.752.968-.864 1.704h5.136zM57.56 1.24V19h-4.104V1.24h4.104zm2.158 11.04c0-1.376.256-2.584.768-3.624.528-1.04 1.24-1.84 2.136-2.4.896-.56 1.896-.84 3-.84.944 0 1.768.192 2.472.576.72.384 1.272.888 1.656 1.512V5.608h4.104V19H69.75v-1.896c-.4.624-.96 1.128-1.68 1.512-.704.384-1.528.576-2.472.576-1.088 0-2.08-.28-2.976-.84-.896-.576-1.608-1.384-2.136-2.424-.512-1.056-.768-2.272-.768-3.648zm10.032.024c0-1.024-.288-1.832-.864-2.424a2.73 2.73 0 00-2.064-.888c-.816 0-1.512.296-2.088.888-.56.576-.84 1.376-.84 2.4s.28 1.84.84 2.448c.576.592 1.272.888 2.088.888a2.73 2.73 0 002.064-.888c.576-.592.864-1.4.864-2.424zm15.233-6.84c1.568 0 2.816.512 3.744 1.536.944 1.008 1.416 2.4 1.416 4.176V19h-4.08v-7.272c0-.896-.232-1.592-.696-2.088-.464-.496-1.088-.744-1.872-.744s-1.408.248-1.872.744c-.464.496-.696 1.192-.696 2.088V19h-4.104V5.608h4.104v1.776c.416-.592.976-1.056 1.68-1.392.704-.352 1.496-.528 2.376-.528zm7.196 6.84c0-1.392.28-2.608.84-3.648a6.017 6.017 0 012.376-2.4c1.024-.56 2.192-.84 3.504-.84 1.68 0 3.08.44 4.2 1.32 1.136.88 1.88 2.12 2.232 3.72h-4.368c-.368-1.024-1.08-1.536-2.136-1.536-.752 0-1.352.296-1.8.888-.448.576-.672 1.408-.672 2.496s.224 1.928.672 2.52c.448.576 1.048.864 1.8.864 1.056 0 1.768-.512 2.136-1.536h4.368c-.352 1.568-1.096 2.8-2.232 3.696-1.136.896-2.536 1.344-4.2 1.344-1.312 0-2.48-.28-3.504-.84a6.017 6.017 0 01-2.376-2.4c-.56-1.04-.84-2.256-.84-3.648zm27.971-.216c0 .384-.024.784-.072 1.2h-9.288c.064.832.328 1.472.792 1.92.48.432 1.064.648 1.752.648 1.024 0 1.736-.432 2.136-1.296h4.368a5.916 5.916 0 01-1.224 2.376 5.958 5.958 0 01-2.184 1.656c-.88.4-1.864.6-2.952.6-1.312 0-2.48-.28-3.504-.84a5.975 5.975 0 01-2.4-2.4c-.576-1.04-.864-2.256-.864-3.648 0-1.392.28-2.608.84-3.648a5.975 5.975 0 012.4-2.4c1.024-.56 2.2-.84 3.528-.84 1.296 0 2.448.272 3.456.816a5.781 5.781 0 012.352 2.328c.576 1.008.864 2.184.864 3.528zm-4.2-1.08c0-.704-.24-1.264-.72-1.68-.48-.416-1.08-.624-1.8-.624-.688 0-1.272.2-1.752.6-.464.4-.752.968-.864 1.704h5.136zm10.47-3.168a5.3 5.3 0 011.8-1.728 4.576 4.576 0 012.4-.648v4.344h-1.128c-1.024 0-1.792.224-2.304.672-.512.432-.768 1.2-.768 2.304V19h-4.104V5.608h4.104V7.84zm13.792.432c.432-.752 1.072-1.376 1.92-1.872.864-.512 1.864-.768 3-.768 1.168 0 2.224.28 3.168.84.96.56 1.712 1.352 2.256 2.376.544 1.008.816 2.184.816 3.528 0 1.328-.272 2.512-.816 3.552-.544 1.04-1.296 1.848-2.256 2.424-.944.576-2 .864-3.168.864-1.12 0-2.112-.248-2.976-.744-.848-.512-1.496-1.144-1.944-1.896v8.664h-2.184V5.848h2.184v2.424zm8.928 4.104c0-.992-.2-1.856-.6-2.592-.4-.736-.944-1.296-1.632-1.68a4.419 4.419 0 00-2.232-.576c-.8 0-1.544.2-2.232.6-.672.384-1.216.952-1.632 1.704-.4.736-.6 1.592-.6 2.568 0 .992.2 1.864.6 2.616.416.736.96 1.304 1.632 1.704a4.505 4.505 0 002.232.576c.816 0 1.56-.192 2.232-.576a4.295 4.295 0 001.632-1.704c.4-.752.6-1.632.6-2.64zm10.842 6.84c-1.232 0-2.352-.28-3.36-.84A6.105 6.105 0 01154.27 16c-.56-1.04-.84-2.24-.84-3.6 0-1.344.288-2.528.864-3.552.592-1.04 1.392-1.832 2.4-2.376 1.008-.56 2.136-.84 3.384-.84 1.248 0 2.376.28 3.384.84a5.897 5.897 0 012.376 2.352c.592 1.024.888 2.216.888 3.576 0 1.36-.304 2.56-.912 3.6a6.178 6.178 0 01-2.424 2.376c-1.024.56-2.16.84-3.408.84zm0-1.92c.784 0 1.52-.184 2.208-.552.688-.368 1.24-.92 1.656-1.656.432-.736.648-1.632.648-2.688 0-1.056-.208-1.952-.624-2.688-.416-.736-.96-1.28-1.632-1.632a4.474 4.474 0 00-2.184-.552c-.8 0-1.536.184-2.208.552-.656.352-1.184.896-1.584 1.632-.4.736-.6 1.632-.6 2.688 0 1.072.192 1.976.576 2.712.4.736.928 1.288 1.584 1.656a4.496 4.496 0 002.16.528zm11.8-9.312a4.212 4.212 0 011.632-1.752c.72-.416 1.592-.624 2.616-.624v2.256h-.576c-2.448 0-3.672 1.328-3.672 3.984V19h-2.184V5.848h2.184v2.136zm9.433-.336V15.4c0 .64.136 1.096.408 1.368.272.256.744.384 1.416.384h1.608V19h-1.968c-1.216 0-2.128-.28-2.736-.84-.608-.56-.912-1.48-.912-2.76V7.648h-1.704v-1.8h1.704V2.536h2.184v3.312h3.432v1.8h-3.432zm11.43 0h-2.76V19h-2.184V7.648h-1.704v-1.8h1.704v-.936c0-1.472.376-2.544 1.128-3.216.768-.688 1.992-1.032 3.672-1.032v1.824c-.96 0-1.64.192-2.04.576-.384.368-.576.984-.576 1.848v.936h2.76v1.8zm8.283 11.568c-1.232 0-2.352-.28-3.36-.84A6.105 6.105 0 01195.216 16c-.56-1.04-.84-2.24-.84-3.6 0-1.344.288-2.528.864-3.552.592-1.04 1.392-1.832 2.4-2.376 1.008-.56 2.136-.84 3.384-.84 1.248 0 2.376.28 3.384.84a5.897 5.897 0 012.376 2.352c.592 1.024.888 2.216.888 3.576 0 1.36-.304 2.56-.912 3.6a6.178 6.178 0 01-2.424 2.376c-1.024.56-2.16.84-3.408.84zm0-1.92c.784 0 1.52-.184 2.208-.552.688-.368 1.24-.92 1.656-1.656.432-.736.648-1.632.648-2.688 0-1.056-.208-1.952-.624-2.688-.416-.736-.96-1.28-1.632-1.632A4.474 4.474 0 00201 7.528c-.8 0-1.536.184-2.208.552-.656.352-1.184.896-1.584 1.632-.4.736-.6 1.632-.6 2.688 0 1.072.192 1.976.576 2.712.4.736.928 1.288 1.584 1.656a4.496 4.496 0 002.16.528zM212.727 1.24V19h-2.184V1.24h2.184zm4.851 2.472c-.416 0-.768-.144-1.056-.432a1.436 1.436 0 01-.432-1.056c0-.416.144-.768.432-1.056.288-.288.64-.432 1.056-.432.4 0 .736.144 1.008.432.288.288.432.64.432 1.056 0 .416-.144.768-.432 1.056a1.331 1.331 0 01-1.008.432zm1.056 2.136V19h-2.184V5.848h2.184zm9.458 13.368c-1.232 0-2.352-.28-3.36-.84A6.105 6.105 0 01222.38 16c-.56-1.04-.84-2.24-.84-3.6 0-1.344.288-2.528.864-3.552.592-1.04 1.392-1.832 2.4-2.376 1.008-.56 2.136-.84 3.384-.84 1.248 0 2.376.28 3.384.84a5.897 5.897 0 012.376 2.352c.592 1.024.888 2.216.888 3.576 0 1.36-.304 2.56-.912 3.6a6.178 6.178 0 01-2.424 2.376c-1.024.56-2.16.84-3.408.84zm0-1.92c.784 0 1.52-.184 2.208-.552.688-.368 1.24-.92 1.656-1.656.432-.736.648-1.632.648-2.688 0-1.056-.208-1.952-.624-2.688-.416-.736-.96-1.28-1.632-1.632a4.474 4.474 0 00-2.184-.552c-.8 0-1.536.184-2.208.552-.656.352-1.184.896-1.584 1.632-.4.736-.6 1.632-.6 2.688 0 1.072.192 1.976.576 2.712.4.736.928 1.288 1.584 1.656a4.496 4.496 0 002.16.528z" fill="#fff"/></svg>