<svg width="38" height="38" fill="none" xmlns="http://www.w3.org/2000/svg"><path d="M19.004 9.255a9.725 9.725 0 00-9.74 9.74 9.725 9.725 0 009.74 9.741 9.725 9.725 0 009.74-9.74 9.725 9.725 0 00-9.74-9.74zm0 16.073c-3.484 0-6.332-2.84-6.332-6.332a6.339 6.339 0 016.332-6.333 6.339 6.339 0 016.333 6.333c0 3.492-2.849 6.332-6.333 6.332zM31.415 8.857a2.267 2.267 0 01-2.272 2.272 2.272 2.272 0 112.272-2.272zm6.452 2.306c-.145-3.044-.84-5.74-3.07-7.96C32.578.98 29.882.285 26.838.132c-3.136-.178-12.538-.178-15.674 0-3.035.145-5.731.84-7.96 3.06C.972 5.416.285 8.112.132 11.155c-.178 3.137-.178 12.538 0 15.675.145 3.043.84 5.74 3.07 7.96 2.229 2.221 4.916 2.916 7.96 3.069 3.136.178 12.538.178 15.674 0 3.044-.144 5.74-.84 7.96-3.069 2.222-2.22 2.917-4.917 3.07-7.96.178-3.137.178-12.53 0-15.666zm-4.053 19.031a6.411 6.411 0 01-3.611 3.612c-2.5.992-8.435.763-11.199.763-2.763 0-8.706.22-11.198-.763a6.411 6.411 0 01-3.612-3.612c-.992-2.5-.763-8.435-.763-11.198 0-2.764-.22-8.706.763-11.199a6.411 6.411 0 013.612-3.611c2.5-.992 8.435-.763 11.198-.763 2.764 0 8.706-.22 11.199.763a6.411 6.411 0 013.611 3.611c.992 2.5.763 8.435.763 11.199 0 2.763.23 8.706-.763 11.198z" fill="#fff"/></svg>