<svg width="38" height="38" fill="none" xmlns="http://www.w3.org/2000/svg"><path d="M35.286 0H2.706C1.213 0 0 1.23 0 2.74v32.52C0 36.77 1.213 38 2.706 38h32.58C36.779 38 38 36.77 38 35.26V2.74C38 1.23 36.779 0 35.286 0zM11.485 32.571H5.853V14.437h5.64V32.57h-.008zM8.669 11.96a3.267 3.267 0 01-3.266-3.266A3.267 3.267 0 018.67 5.43a3.272 3.272 0 013.265 3.265A3.262 3.262 0 018.67 11.96zm23.928 20.61h-5.632v-8.82c0-2.104-.043-4.81-2.927-4.81-2.934 0-3.384 2.29-3.384 4.657v8.974h-5.632V14.437h5.403v2.476h.076c.755-1.425 2.596-2.926 5.336-2.926 5.7 0 6.76 3.758 6.76 8.643v9.941z" fill="#fff"/></svg>