<svg width="38" height="38" fill="none" xmlns="http://www.w3.org/2000/svg"><path d="M12.71 29.833c0 .153-.176.276-.398.276-.253.023-.43-.1-.43-.276 0-.153.177-.276.399-.276.23-.023.43.1.43.276zm-2.383-.345c-.053.154.1.33.33.376.199.076.429 0 .475-.154.046-.153-.1-.329-.33-.398-.199-.053-.421.023-.475.176zm3.387-.13c-.223.054-.376.2-.353.375.023.154.223.253.452.2.223-.054.376-.2.353-.353-.023-.145-.23-.245-.452-.222zM18.754 0C8.13 0 0 8.067 0 18.694 0 27.19 5.348 34.46 12.986 37.019c.98.177 1.325-.429 1.325-.927 0-.475-.023-3.095-.023-4.704 0 0-5.363 1.15-6.489-2.283 0 0-.873-2.23-2.13-2.804 0 0-1.754-1.203.123-1.18 0 0 1.908.154 2.957 1.977 1.678 2.957 4.49 2.107 5.585 1.601.177-1.226.675-2.076 1.226-2.582-4.283-.475-8.604-1.095-8.604-8.465 0-2.107.583-3.165 1.809-4.513-.2-.498-.85-2.551.199-5.202 1.6-.498 5.286 2.069 5.286 2.069a18.002 18.002 0 014.811-.652c1.632 0 3.28.223 4.812.652 0 0 3.685-2.575 5.286-2.069 1.05 2.659.398 4.704.2 5.202 1.225 1.356 1.976 2.413 1.976 4.513 0 7.393-4.513 7.983-8.796 8.465.705.606 1.303 1.755 1.303 3.555 0 2.582-.023 5.777-.023 6.405 0 .498.352 1.103 1.325.927C32.806 34.461 38 27.19 38 18.694 38 8.066 29.381 0 18.755 0zM7.448 26.424c-.1.076-.077.253.053.398.123.123.3.176.399.077.1-.077.076-.253-.054-.399-.122-.122-.299-.176-.398-.076zm-.828-.62c-.053.099.023.221.177.298.122.077.275.054.329-.054.054-.1-.023-.222-.176-.298-.153-.046-.276-.023-.33.053zm2.483 2.727c-.123.1-.077.33.1.475.175.176.398.199.497.076.1-.1.054-.33-.1-.475-.168-.176-.398-.199-.497-.076zm-.874-1.127c-.122.077-.122.276 0 .453.123.176.33.252.43.176.122-.1.122-.3 0-.475-.108-.177-.307-.253-.43-.154z" fill="#fff"/></svg>