<svg width="38" height="31" fill="none" xmlns="http://www.w3.org/2000/svg"><path d="M34.094 7.692c.024.337.024.675.024 1.012 0 10.296-7.836 22.159-22.159 22.159A22.009 22.009 0 010 27.367c.627.072 1.23.096 1.88.096 3.642 0 6.993-1.23 9.67-3.327a7.802 7.802 0 01-7.282-5.401c.482.072.964.12 1.47.12.7 0 1.4-.096 2.05-.265a7.79 7.79 0 01-6.245-7.643v-.097a7.842 7.842 0 003.52.989 7.783 7.783 0 01-3.472-6.486 7.73 7.73 0 011.061-3.93 22.137 22.137 0 0016.059 8.15 8.794 8.794 0 01-.193-1.785A7.785 7.785 0 0126.306 0a7.77 7.77 0 015.69 2.46A15.333 15.333 0 0036.94.578a7.767 7.767 0 01-3.424 4.292 15.638 15.638 0 004.485-1.206 16.741 16.741 0 01-3.906 4.027z" fill="#fff"/></svg>