<svg width="16" height="16" fill="none" xmlns="http://www.w3.org/2000/svg"><path d="M6 .277a.768.768 0 01.08.858 7.208 7.208 0 00-.878 3.46c0 4.022 3.278 7.278 7.319 7.278.526 0 1.04-.055 1.533-.16a.787.787 0 01.81.316.733.733 0 01-.031.893A8.35 8.35 0 018.344 16C3.734 16 0 12.286 0 7.71 0 4.266 2.114 1.31 5.124.06A.752.752 0 016 .276z" fill="#000"/><path d="M10.794 3.147a.217.217 0 01.412 0l.387 1.163c.173.518.579.924 1.097 1.097l1.162.387a.217.217 0 010 .412l-1.162.387a1.734 1.734 0 00-1.097 1.097l-.387 1.162a.217.217 0 01-.412 0l-.387-1.162A1.734 1.734 0 009.31 6.593l-1.162-.387a.217.217 0 010-.412l1.162-.387a1.734 1.734 0 001.097-1.097l.387-1.163zm3.07-3.049a.144.144 0 01.22-.07.145.145 0 01.053.07l.258.774c.115.346.386.617.732.732l.774.258a.145.145 0 010 .274l-.774.258a1.155 1.155 0 00-.732.732l-.258.774a.145.145 0 01-.274 0l-.258-.774a1.156 1.156 0 00-.732-.732l-.774-.258a.145.145 0 010-.274l.774-.258c.346-.115.617-.386.732-.732L13.863.1z" fill="#000"/></svg>