<svg width="38" height="23" fill="none" xmlns="http://www.w3.org/2000/svg"><path d="M37.134 1.53c.261-.881 0-1.53-1.256-1.53h-4.155c-1.058 0-1.545.557-1.806 1.178 0 0-2.116 5.157-5.107 8.5-.966.967-1.41 1.277-1.94 1.277-.26 0-.663-.31-.663-1.192V1.531C22.207.473 21.911 0 21.036 0h-6.532c-.663 0-1.059.494-1.059.952 0 1.002 1.496 1.235 1.651 4.057v6.123c0 1.34-.24 1.587-.769 1.587-1.41 0-4.839-5.178-6.87-11.104C7.046.465 6.644 0 5.58 0H1.425C.24 0 0 .557 0 1.178c0 1.1 1.41 6.568 6.568 13.791 3.435 4.931 8.274 7.605 12.676 7.605 2.646 0 2.97-.593 2.97-1.616 0-4.712-.24-5.156 1.086-5.156.614 0 1.672.31 4.141 2.687 2.822 2.822 3.288 4.085 4.868 4.085h4.155c1.185 0 1.785-.593 1.439-1.764-.79-2.462-6.13-7.527-6.37-7.865-.614-.79-.438-1.143 0-1.848.007-.008 5.079-7.147 5.601-9.566z" fill="#fff"/></svg>