<svg width="235" height="26" viewBox="0 0 235 26" fill="none" xmlns="http://www.w3.org/2000/svg">
<path d="M11.456 2.152V5.44H4.592V8.992H9.728V12.184H4.592V19H0.488V2.152H11.456ZM17.717 7.84C18.197 7.104 18.797 6.528 19.517 6.112C20.237 5.68 21.037 5.464 21.917 5.464V9.808H20.789C19.765 9.808 18.997 10.032 18.485 10.48C17.973 10.912 17.717 11.68 17.717 12.784V19H13.613V5.608H17.717V7.84ZM36.5026 12.088C36.5026 12.472 36.4786 12.872 36.4306 13.288H27.1426C27.2066 14.12 27.4706 14.76 27.9346 15.208C28.4146 15.64 28.9986 15.856 29.6866 15.856C30.7106 15.856 31.4226 15.424 31.8226 14.56H36.1906C35.9666 15.44 35.5586 16.232 34.9666 16.936C34.3906 17.64 33.6626 18.192 32.7826 18.592C31.9026 18.992 30.9186 19.192 29.8306 19.192C28.5186 19.192 27.3506 18.912 26.3266 18.352C25.3026 17.792 24.5026 16.992 23.9266 15.952C23.3506 14.912 23.0626 13.696 23.0626 12.304C23.0626 10.912 23.3426 9.696 23.9026 8.656C24.4786 7.616 25.2786 6.816 26.3026 6.256C27.3266 5.696 28.5026 5.416 29.8306 5.416C31.1266 5.416 32.2786 5.688 33.2866 6.232C34.2946 6.776 35.0786 7.552 35.6386 8.56C36.2146 9.568 36.5026 10.744 36.5026 12.088ZM32.3026 11.008C32.3026 10.304 32.0626 9.744 31.5826 9.328C31.1026 8.912 30.5026 8.704 29.7826 8.704C29.0946 8.704 28.5106 8.904 28.0306 9.304C27.5666 9.704 27.2786 10.272 27.1666 11.008H32.3026ZM51.2917 12.088C51.2917 12.472 51.2677 12.872 51.2197 13.288H41.9317C41.9957 14.12 42.2597 14.76 42.7237 15.208C43.2037 15.64 43.7877 15.856 44.4757 15.856C45.4997 15.856 46.2117 15.424 46.6117 14.56H50.9797C50.7557 15.44 50.3477 16.232 49.7557 16.936C49.1797 17.64 48.4517 18.192 47.5717 18.592C46.6917 18.992 45.7077 19.192 44.6197 19.192C43.3077 19.192 42.1397 18.912 41.1157 18.352C40.0917 17.792 39.2917 16.992 38.7157 15.952C38.1397 14.912 37.8517 13.696 37.8517 12.304C37.8517 10.912 38.1317 9.696 38.6917 8.656C39.2677 7.616 40.0677 6.816 41.0917 6.256C42.1157 5.696 43.2917 5.416 44.6197 5.416C45.9157 5.416 47.0677 5.688 48.0757 6.232C49.0837 6.776 49.8677 7.552 50.4277 8.56C51.0037 9.568 51.2917 10.744 51.2917 12.088ZM47.0917 11.008C47.0917 10.304 46.8517 9.744 46.3717 9.328C45.8917 8.912 45.2917 8.704 44.5717 8.704C43.8837 8.704 43.2997 8.904 42.8197 9.304C42.3557 9.704 42.0677 10.272 41.9557 11.008H47.0917ZM57.5608 1.24V19H53.4568V1.24H57.5608ZM59.7189 12.28C59.7189 10.904 59.9749 9.696 60.4869 8.656C61.0149 7.616 61.7269 6.816 62.6229 6.256C63.5189 5.696 64.5189 5.416 65.6229 5.416C66.5669 5.416 67.3909 5.608 68.0949 5.992C68.8149 6.376 69.3669 6.88 69.7509 7.504V5.608H73.8549V19H69.7509V17.104C69.3509 17.728 68.7909 18.232 68.0709 18.616C67.3669 19 66.5429 19.192 65.5989 19.192C64.5109 19.192 63.5189 18.912 62.6229 18.352C61.7269 17.776 61.0149 16.968 60.4869 15.928C59.9749 14.872 59.7189 13.656 59.7189 12.28ZM69.7509 12.304C69.7509 11.28 69.4629 10.472 68.8869 9.88C68.3269 9.288 67.6389 8.992 66.8229 8.992C66.0069 8.992 65.3109 9.288 64.7349 9.88C64.1749 10.456 63.8949 11.256 63.8949 12.28C63.8949 13.304 64.1749 14.12 64.7349 14.728C65.3109 15.32 66.0069 15.616 66.8229 15.616C67.6389 15.616 68.3269 15.32 68.8869 14.728C69.4629 14.136 69.7509 13.328 69.7509 12.304ZM84.9839 5.464C86.5519 5.464 87.7999 5.976 88.7279 7C89.6719 8.008 90.1439 9.4 90.1439 11.176V19H86.0639V11.728C86.0639 10.832 85.8319 10.136 85.3679 9.64C84.9039 9.144 84.2799 8.896 83.4959 8.896C82.7119 8.896 82.0879 9.144 81.6239 9.64C81.1599 10.136 80.9279 10.832 80.9279 11.728V19H76.8239V5.608H80.9279V7.384C81.3439 6.792 81.9039 6.328 82.6079 5.992C83.3119 5.64 84.1039 5.464 84.9839 5.464ZM92.1798 12.304C92.1798 10.912 92.4598 9.696 93.0198 8.656C93.5958 7.616 94.3878 6.816 95.3958 6.256C96.4198 5.696 97.5878 5.416 98.8998 5.416C100.58 5.416 101.98 5.856 103.1 6.736C104.236 7.616 104.98 8.856 105.332 10.456H100.964C100.596 9.432 99.8838 8.92 98.8278 8.92C98.0758 8.92 97.4758 9.216 97.0278 9.808C96.5798 10.384 96.3558 11.216 96.3558 12.304C96.3558 13.392 96.5798 14.232 97.0278 14.824C97.4758 15.4 98.0758 15.688 98.8278 15.688C99.8838 15.688 100.596 15.176 100.964 14.152H105.332C104.98 15.72 104.236 16.952 103.1 17.848C101.964 18.744 100.564 19.192 98.8998 19.192C97.5878 19.192 96.4198 18.912 95.3958 18.352C94.3878 17.792 93.5958 16.992 93.0198 15.952C92.4598 14.912 92.1798 13.696 92.1798 12.304ZM120.151 12.088C120.151 12.472 120.127 12.872 120.079 13.288H110.791C110.855 14.12 111.119 14.76 111.583 15.208C112.063 15.64 112.647 15.856 113.335 15.856C114.359 15.856 115.071 15.424 115.471 14.56H119.839C119.615 15.44 119.207 16.232 118.615 16.936C118.039 17.64 117.311 18.192 116.431 18.592C115.551 18.992 114.567 19.192 113.479 19.192C112.167 19.192 110.999 18.912 109.975 18.352C108.951 17.792 108.151 16.992 107.575 15.952C106.999 14.912 106.711 13.696 106.711 12.304C106.711 10.912 106.991 9.696 107.551 8.656C108.127 7.616 108.927 6.816 109.951 6.256C110.975 5.696 112.151 5.416 113.479 5.416C114.775 5.416 115.927 5.688 116.935 6.232C117.943 6.776 118.727 7.552 119.287 8.56C119.863 9.568 120.151 10.744 120.151 12.088ZM115.951 11.008C115.951 10.304 115.711 9.744 115.231 9.328C114.751 8.912 114.151 8.704 113.431 8.704C112.743 8.704 112.159 8.904 111.679 9.304C111.215 9.704 110.927 10.272 110.815 11.008H115.951ZM126.42 7.84C126.9 7.104 127.5 6.528 128.22 6.112C128.94 5.68 129.74 5.464 130.62 5.464V9.808H129.492C128.468 9.808 127.7 10.032 127.188 10.48C126.676 10.912 126.42 11.68 126.42 12.784V19H122.316V5.608H126.42V7.84ZM140.212 8.272C140.644 7.52 141.284 6.896 142.132 6.4C142.996 5.888 143.996 5.632 145.132 5.632C146.3 5.632 147.356 5.912 148.3 6.472C149.26 7.032 150.012 7.824 150.556 8.848C151.1 9.856 151.372 11.032 151.372 12.376C151.372 13.704 151.1 14.888 150.556 15.928C150.012 16.968 149.26 17.776 148.3 18.352C147.356 18.928 146.3 19.216 145.132 19.216C144.012 19.216 143.02 18.968 142.156 18.472C141.308 17.96 140.66 17.328 140.212 16.576V25.24H138.028V5.848H140.212V8.272ZM149.14 12.376C149.14 11.384 148.94 10.52 148.54 9.784C148.14 9.048 147.596 8.488 146.908 8.104C146.236 7.72 145.492 7.528 144.676 7.528C143.876 7.528 143.132 7.728 142.444 8.128C141.772 8.512 141.228 9.08 140.812 9.832C140.412 10.568 140.212 11.424 140.212 12.4C140.212 13.392 140.412 14.264 140.812 15.016C141.228 15.752 141.772 16.32 142.444 16.72C143.132 17.104 143.876 17.296 144.676 17.296C145.492 17.296 146.236 17.104 146.908 16.72C147.596 16.32 148.14 15.752 148.54 15.016C148.94 14.264 149.14 13.384 149.14 12.376ZM159.982 19.216C158.75 19.216 157.63 18.936 156.622 18.376C155.63 17.816 154.846 17.024 154.27 16C153.71 14.96 153.43 13.76 153.43 12.4C153.43 11.056 153.718 9.872 154.294 8.848C154.886 7.808 155.686 7.016 156.694 6.472C157.702 5.912 158.83 5.632 160.078 5.632C161.326 5.632 162.454 5.912 163.462 6.472C164.47 7.016 165.262 7.8 165.838 8.824C166.43 9.848 166.726 11.04 166.726 12.4C166.726 13.76 166.422 14.96 165.814 16C165.222 17.024 164.414 17.816 163.39 18.376C162.366 18.936 161.23 19.216 159.982 19.216ZM159.982 17.296C160.766 17.296 161.502 17.112 162.19 16.744C162.878 16.376 163.43 15.824 163.846 15.088C164.278 14.352 164.494 13.456 164.494 12.4C164.494 11.344 164.286 10.448 163.87 9.712C163.454 8.976 162.91 8.432 162.238 8.08C161.566 7.712 160.838 7.528 160.054 7.528C159.254 7.528 158.518 7.712 157.846 8.08C157.19 8.432 156.662 8.976 156.262 9.712C155.862 10.448 155.662 11.344 155.662 12.4C155.662 13.472 155.854 14.376 156.238 15.112C156.638 15.848 157.166 16.4 157.822 16.768C158.478 17.12 159.198 17.296 159.982 17.296ZM171.782 7.984C172.166 7.232 172.71 6.648 173.414 6.232C174.134 5.816 175.006 5.608 176.03 5.608V7.864H175.454C173.006 7.864 171.782 9.192 171.782 11.848V19H169.598V5.848H171.782V7.984ZM181.215 7.648V15.4C181.215 16.04 181.351 16.496 181.623 16.768C181.895 17.024 182.367 17.152 183.039 17.152H184.647V19H182.679C181.463 19 180.551 18.72 179.943 18.16C179.335 17.6 179.031 16.68 179.031 15.4V7.648H177.327V5.848H179.031V2.536H181.215V5.848H184.647V7.648H181.215ZM192.645 7.648H189.885V19H187.701V7.648H185.997V5.848H187.701V4.912C187.701 3.44 188.077 2.368 188.829 1.696C189.597 1.008 190.821 0.663999 192.501 0.663999V2.488C191.541 2.488 190.861 2.68 190.461 3.064C190.077 3.432 189.885 4.048 189.885 4.912V5.848H192.645V7.648ZM200.928 19.216C199.696 19.216 198.576 18.936 197.568 18.376C196.576 17.816 195.792 17.024 195.216 16C194.656 14.96 194.376 13.76 194.376 12.4C194.376 11.056 194.664 9.872 195.24 8.848C195.832 7.808 196.632 7.016 197.64 6.472C198.648 5.912 199.776 5.632 201.024 5.632C202.272 5.632 203.4 5.912 204.408 6.472C205.416 7.016 206.208 7.8 206.784 8.824C207.376 9.848 207.672 11.04 207.672 12.4C207.672 13.76 207.368 14.96 206.76 16C206.168 17.024 205.36 17.816 204.336 18.376C203.312 18.936 202.176 19.216 200.928 19.216ZM200.928 17.296C201.712 17.296 202.448 17.112 203.136 16.744C203.824 16.376 204.376 15.824 204.792 15.088C205.224 14.352 205.44 13.456 205.44 12.4C205.44 11.344 205.232 10.448 204.816 9.712C204.4 8.976 203.856 8.432 203.184 8.08C202.512 7.712 201.784 7.528 201 7.528C200.2 7.528 199.464 7.712 198.792 8.08C198.136 8.432 197.608 8.976 197.208 9.712C196.808 10.448 196.608 11.344 196.608 12.4C196.608 13.472 196.8 14.376 197.184 15.112C197.584 15.848 198.112 16.4 198.768 16.768C199.424 17.12 200.144 17.296 200.928 17.296ZM212.727 1.24V19H210.543V1.24H212.727ZM217.578 3.712C217.162 3.712 216.81 3.568 216.522 3.28C216.234 2.992 216.09 2.64 216.09 2.224C216.09 1.808 216.234 1.456 216.522 1.168C216.81 0.879999 217.162 0.735999 217.578 0.735999C217.978 0.735999 218.314 0.879999 218.586 1.168C218.874 1.456 219.018 1.808 219.018 2.224C219.018 2.64 218.874 2.992 218.586 3.28C218.314 3.568 217.978 3.712 217.578 3.712ZM218.634 5.848V19H216.45V5.848H218.634ZM228.092 19.216C226.86 19.216 225.74 18.936 224.732 18.376C223.74 17.816 222.956 17.024 222.38 16C221.82 14.96 221.54 13.76 221.54 12.4C221.54 11.056 221.828 9.872 222.404 8.848C222.996 7.808 223.796 7.016 224.804 6.472C225.812 5.912 226.94 5.632 228.188 5.632C229.436 5.632 230.564 5.912 231.572 6.472C232.58 7.016 233.372 7.8 233.948 8.824C234.54 9.848 234.836 11.04 234.836 12.4C234.836 13.76 234.532 14.96 233.924 16C233.332 17.024 232.524 17.816 231.5 18.376C230.476 18.936 229.34 19.216 228.092 19.216ZM228.092 17.296C228.876 17.296 229.612 17.112 230.3 16.744C230.988 16.376 231.54 15.824 231.956 15.088C232.388 14.352 232.604 13.456 232.604 12.4C232.604 11.344 232.396 10.448 231.98 9.712C231.564 8.976 231.02 8.432 230.348 8.08C229.676 7.712 228.948 7.528 228.164 7.528C227.364 7.528 226.628 7.712 225.956 8.08C225.3 8.432 224.772 8.976 224.372 9.712C223.972 10.448 223.772 11.344 223.772 12.4C223.772 13.472 223.964 14.376 224.348 15.112C224.748 15.848 225.276 16.4 225.932 16.768C226.588 17.12 227.308 17.296 228.092 17.296Z" fill="white"/>
</svg>
